<svg xmlns="http://www.w3.org/2000/svg" xmlns:xlink="http://www.w3.org/1999/xlink" width="1900" zoomAndPan="magnify" viewBox="0 0 1425 225" height="300" preserveAspectRatio="xMidYMid meet" version="1.0"><defs><g/><clipPath id="a10ddc9de3"><path d="M 0.839844 0 L 263.640625 0 L 263.640625 225 L 0.839844 225 Z M 0.839844 0 " clip-rule="nonzero"/></clipPath><clipPath id="e2c1e208a0"><rect x="0" width="264" y="0" height="225"/></clipPath><clipPath id="df96d54fe3"><path d="M 4 0.160156 L 69 0.160156 L 69 76 L 4 76 Z M 4 0.160156 " clip-rule="nonzero"/></clipPath><clipPath id="eed7652081"><rect x="0" width="75" y="0" height="92"/></clipPath><clipPath id="1dea0e6f42"><path d="M 4 0.078125 L 70 0.078125 L 70 75 L 4 75 Z M 4 0.078125 " clip-rule="nonzero"/></clipPath><clipPath id="820cde93a9"><rect x="0" width="75" y="0" height="91"/></clipPath><clipPath id="bbc471a2f4"><rect x="0" width="264" y="0" height="225"/></clipPath><clipPath id="e8f23b3b6b"><path d="M 6 0.0390625 L 115 0.0390625 L 115 115 L 6 115 Z M 6 0.0390625 " clip-rule="nonzero"/></clipPath><clipPath id="725d5b41aa"><path d="M 125 0.0390625 L 231 0.0390625 L 231 115 L 125 115 Z M 125 0.0390625 " clip-rule="nonzero"/></clipPath><clipPath id="c80967523c"><path d="M 242 0.0390625 L 382 0.0390625 L 382 115 L 242 115 Z M 242 0.0390625 " clip-rule="nonzero"/></clipPath><clipPath id="b9d9d68fb6"><path d="M 393 0.0390625 L 515 0.0390625 L 515 115 L 393 115 Z M 393 0.0390625 " clip-rule="nonzero"/></clipPath><clipPath id="b26d54e8fe"><path d="M 525 0.0390625 L 574 0.0390625 L 574 115 L 525 115 Z M 525 0.0390625 " clip-rule="nonzero"/></clipPath><clipPath id="9651340342"><path d="M 584 0.0390625 L 697 0.0390625 L 697 115 L 584 115 Z M 584 0.0390625 " clip-rule="nonzero"/></clipPath><clipPath id="26127c7edc"><path d="M 707 0.0390625 L 814 0.0390625 L 814 115 L 707 115 Z M 707 0.0390625 " clip-rule="nonzero"/></clipPath><clipPath id="809e0385a1"><path d="M 877 0.0390625 L 975 0.0390625 L 975 115 L 877 115 Z M 877 0.0390625 " clip-rule="nonzero"/></clipPath><clipPath id="e5ec57c830"><path d="M 986 0.0390625 L 1087 0.0390625 L 1087 115 L 986 115 Z M 986 0.0390625 " clip-rule="nonzero"/></clipPath><clipPath id="e4fd0d5e95"><rect x="0" width="1093" y="0" height="138"/></clipPath><clipPath id="63a5e185aa"><path d="M 0 0.199219 L 1079.039062 0.199219 L 1079.039062 48 L 0 48 Z M 0 0.199219 " clip-rule="nonzero"/></clipPath><clipPath id="5c1d9954fe"><rect x="0" width="1080" y="0" height="48"/></clipPath><clipPath id="c409759aa3"><path d="M 285 0.199219 L 344 0.199219 L 344 48.199219 L 285 48.199219 Z M 285 0.199219 " clip-rule="nonzero"/></clipPath><clipPath id="a4987b4855"><rect x="0" width="59" y="0" height="49"/></clipPath><clipPath id="b81a77211f"><rect x="0" width="1080" y="0" height="49"/></clipPath></defs><g transform="matrix(1, 0, 0, 1, 33, -0.000000000000008531)"><g clip-path="url(#bbc471a2f4)"><g clip-path="url(#a10ddc9de3)"><g transform="matrix(1, 0, 0, 1, 0, -0.000000000000008531)"><g clip-path="url(#e2c1e208a0)"><g fill="#0e2349" fill-opacity="1"><g transform="translate(219.674702, 226.347649)"><g><path d="M -213.703125 -119.421875 C -213.703125 -112.273438 -212.390625 -105.570312 -209.765625 -99.3125 C -206.992188 -93.039062 -203.273438 -87.570312 -198.609375 -82.90625 C -193.941406 -78.238281 -188.472656 -74.59375 -182.203125 -71.96875 C -175.929688 -69.195312 -169.222656 -67.8125 -162.078125 -67.8125 C -154.929688 -67.8125 -148.222656 -69.195312 -141.953125 -71.96875 C -135.679688 -74.59375 -130.210938 -78.238281 -125.546875 -82.90625 C -120.878906 -87.570312 -117.234375 -93.039062 -114.609375 -99.3125 C -111.835938 -105.570312 -110.453125 -112.273438 -110.453125 -119.421875 L -110.453125 -161.421875 C -110.453125 -169.003906 -109 -176.222656 -106.09375 -183.078125 C -103.175781 -189.785156 -99.238281 -195.617188 -94.28125 -200.578125 C -89.320312 -205.535156 -83.488281 -209.472656 -76.78125 -212.390625 C -70.070312 -215.304688 -62.925781 -216.765625 -55.34375 -216.765625 C -47.613281 -216.765625 -40.394531 -215.304688 -33.6875 -212.390625 C -26.976562 -209.472656 -21.144531 -205.535156 -16.1875 -200.578125 C -11.226562 -195.617188 -7.289062 -189.785156 -4.375 -183.078125 C -1.457031 -176.222656 0 -169.003906 0 -161.421875 L 0 -10.9375 L -62.5625 -10.9375 C -51.476562 -13.5625 -41.632812 -18.300781 -33.03125 -25.15625 C -29.382812 -28.070312 -25.8125 -31.570312 -22.3125 -35.65625 C -18.8125 -39.59375 -15.675781 -44.332031 -12.90625 -49.875 C -10.132812 -55.269531 -7.945312 -61.539062 -6.34375 -68.6875 C -4.59375 -75.6875 -3.71875 -83.632812 -3.71875 -92.53125 L -3.71875 -108.28125 C -3.71875 -115.414062 -5.101562 -122.117188 -7.875 -128.390625 C -10.5 -134.660156 -14.144531 -140.128906 -18.8125 -144.796875 C -23.476562 -149.460938 -28.945312 -153.179688 -35.21875 -155.953125 C -41.488281 -158.578125 -48.195312 -159.890625 -55.34375 -159.890625 C -62.488281 -159.890625 -69.195312 -158.578125 -75.46875 -155.953125 C -81.59375 -153.179688 -86.988281 -149.460938 -91.65625 -144.796875 C -96.320312 -140.128906 -100.039062 -134.660156 -102.8125 -128.390625 C -105.4375 -122.117188 -106.75 -115.414062 -106.75 -108.28125 L -106.75 -66.28125 C -106.75 -58.550781 -108.203125 -51.332031 -111.109375 -44.625 C -114.023438 -37.914062 -117.960938 -32.082031 -122.921875 -27.125 C -127.878906 -22.164062 -133.710938 -18.226562 -140.421875 -15.3125 C -147.128906 -12.394531 -154.347656 -10.9375 -162.078125 -10.9375 C -169.660156 -10.9375 -176.804688 -12.394531 -183.515625 -15.3125 C -190.222656 -18.226562 -196.054688 -22.164062 -201.015625 -27.125 C -205.972656 -32.082031 -209.910156 -37.914062 -212.828125 -44.625 C -215.742188 -51.332031 -217.203125 -58.550781 -217.203125 -66.28125 L -217.203125 -216.765625 L -154.640625 -216.765625 C -165.578125 -214.140625 -175.421875 -209.398438 -184.171875 -202.546875 C -187.816406 -199.628906 -191.460938 -196.128906 -195.109375 -192.046875 C -198.609375 -187.960938 -201.742188 -183.222656 -204.515625 -177.828125 C -207.285156 -172.285156 -209.546875 -166.015625 -211.296875 -159.015625 C -212.898438 -152.015625 -213.703125 -144.066406 -213.703125 -135.171875 Z M -213.703125 -119.421875 "/></g></g></g></g></g></g><g transform="matrix(1, 0, 0, 1, 21, 50)"><g clip-path="url(#eed7652081)"><g clip-path="url(#df96d54fe3)"><g fill="#0e2349" fill-opacity="1"><g transform="translate(0.926728, 75.648141)"><g><path d="M 22.90625 -73.953125 L 22.90625 -47.78125 L 50.953125 -47.78125 C 53.734375 -47.78125 56.15625 -47.101562 58.21875 -45.75 C 60.28125 -44.382812 61.992188 -42.59375 63.359375 -40.375 C 64.722656 -38.101562 65.753906 -35.554688 66.453125 -32.734375 C 67.109375 -29.859375 67.4375 -26.9375 67.4375 -23.96875 C 67.394531 -20.945312 67.046875 -18.023438 66.390625 -15.203125 C 65.679688 -12.328125 64.644531 -9.78125 63.28125 -7.5625 C 61.875 -5.289062 60.160156 -3.472656 58.140625 -2.109375 C 56.078125 -0.753906 53.679688 -0.078125 50.953125 -0.078125 L 4.46875 -0.078125 L 4.46875 -21.703125 C 5.375 -17.867188 7.007812 -14.46875 9.375 -11.5 C 10.382812 -10.238281 11.59375 -9 13 -7.78125 C 14.363281 -6.570312 16.003906 -5.488281 17.921875 -4.53125 C 19.785156 -3.570312 21.953125 -2.816406 24.421875 -2.265625 C 26.835938 -1.660156 29.582031 -1.359375 32.65625 -1.359375 C 35.226562 -1.410156 37.597656 -2.269531 39.765625 -3.9375 C 41.890625 -5.539062 43.707031 -7.601562 45.21875 -10.125 C 46.320312 -11.945312 47.101562 -14.066406 47.5625 -16.484375 C 48.007812 -18.847656 48.207031 -21.242188 48.15625 -23.671875 C 48.113281 -26.035156 47.890625 -28.300781 47.484375 -30.46875 C 47.023438 -32.582031 46.445312 -34.296875 45.75 -35.609375 C 44.988281 -37.117188 44.128906 -38.53125 43.171875 -39.84375 C 42.210938 -41.15625 41.179688 -42.316406 40.078125 -43.328125 C 38.960938 -44.285156 37.800781 -45.066406 36.59375 -45.671875 C 35.332031 -46.222656 34.019531 -46.5 32.65625 -46.5 L 24.5 -46.5 C 23.6875 -46.5 23.003906 -46.5 22.453125 -46.5 C 21.898438 -46.445312 21.597656 -46.421875 21.546875 -46.421875 L 21.546875 -46.5 L 3.78125 -46.5 L 3.78125 -75.234375 L 68.046875 -75.234375 L 68.046875 -53.609375 C 67.140625 -57.390625 65.523438 -60.765625 63.203125 -63.734375 C 62.203125 -64.992188 60.992188 -66.253906 59.578125 -67.515625 C 58.171875 -68.722656 56.535156 -69.804688 54.671875 -70.765625 C 52.753906 -71.722656 50.582031 -72.503906 48.15625 -73.109375 C 45.6875 -73.671875 42.914062 -73.953125 39.84375 -73.953125 Z M 22.90625 -73.953125 "/></g></g></g></g></g></g><g transform="matrix(1, 0, 0, 1, 120, 94)"><g clip-path="url(#820cde93a9)"><g clip-path="url(#1dea0e6f42)"><g fill="#0e2349" fill-opacity="1"><g transform="translate(0.86102, 74.349677)"><g><path d="M 65.515625 -72.328125 L 65.515625 -1.265625 L 68.484375 -1.265625 L 68.484375 0 L 37.75 0 L 37.75 -1.265625 L 40.796875 -1.265625 L 40.796875 -25.171875 L 6.21875 -25.171875 L 6.21875 -25.09375 L 3.703125 -25.09375 L 3.703125 -25.171875 L 4.21875 -25.84375 L 40.796875 -73.59375 L 68.484375 -73.59375 L 68.484375 -72.328125 Z M 40.796875 -27.609375 L 40.796875 -70.25 L 8.0625 -27.609375 Z M 40.796875 -27.609375 "/></g></g></g></g></g></g></g></g><g transform="matrix(1, 0, 0, 1, 307, 17)"><g clip-path="url(#e4fd0d5e95)"><g clip-path="url(#e8f23b3b6b)"><g fill="#0e2349" fill-opacity="1"><g transform="translate(0.754724, 114.358514)"><g><path d="M 62.421875 -111.6875 C 58.679688 -111.6875 55.171875 -111 51.890625 -109.625 C 48.617188 -108.175781 45.765625 -106.234375 43.328125 -103.796875 C 40.890625 -101.359375 38.984375 -98.5 37.609375 -95.21875 C 36.160156 -91.945312 35.4375 -88.441406 35.4375 -84.703125 C 35.4375 -80.972656 36.160156 -77.46875 37.609375 -74.1875 C 38.984375 -70.90625 40.890625 -68.046875 43.328125 -65.609375 C 45.765625 -63.171875 48.617188 -61.269531 51.890625 -59.90625 C 55.171875 -58.457031 58.679688 -57.734375 62.421875 -57.734375 L 84.359375 -57.734375 C 88.328125 -57.734375 92.097656 -56.96875 95.671875 -55.4375 C 99.179688 -53.914062 102.234375 -51.859375 104.828125 -49.265625 C 107.421875 -46.671875 109.476562 -43.625 111 -40.125 C 112.519531 -36.613281 113.28125 -32.878906 113.28125 -28.921875 C 113.28125 -24.878906 112.519531 -21.109375 111 -17.609375 C 109.476562 -14.097656 107.421875 -11.046875 104.828125 -8.453125 C 102.234375 -5.867188 99.179688 -3.8125 95.671875 -2.28125 C 92.097656 -0.757812 88.328125 0 84.359375 0 L 5.71875 0 L 5.71875 -32.6875 C 7.082031 -26.894531 9.554688 -21.753906 13.140625 -17.265625 C 14.671875 -15.359375 16.503906 -13.488281 18.640625 -11.65625 C 20.691406 -9.832031 23.164062 -8.195312 26.0625 -6.75 C 28.882812 -5.300781 32.160156 -4.15625 35.890625 -3.3125 C 39.546875 -2.394531 43.703125 -1.9375 48.359375 -1.9375 L 56.578125 -1.9375 C 60.316406 -1.9375 63.820312 -2.660156 67.09375 -4.109375 C 70.375 -5.484375 73.234375 -7.390625 75.671875 -9.828125 C 78.109375 -12.265625 80.050781 -15.125 81.5 -18.40625 C 82.875 -21.675781 83.5625 -25.179688 83.5625 -28.921875 C 83.5625 -32.648438 82.875 -36.15625 81.5 -39.4375 C 80.050781 -42.632812 78.109375 -45.453125 75.671875 -47.890625 C 73.234375 -50.335938 70.375 -52.285156 67.09375 -53.734375 C 63.820312 -55.097656 60.316406 -55.78125 56.578125 -55.78125 L 34.640625 -55.78125 C 30.597656 -55.78125 26.820312 -56.546875 23.3125 -58.078125 C 19.8125 -59.597656 16.765625 -61.65625 14.171875 -64.25 C 11.578125 -66.832031 9.519531 -69.878906 8 -73.390625 C 6.476562 -76.890625 5.71875 -80.660156 5.71875 -84.703125 C 5.71875 -88.671875 6.476562 -92.40625 8 -95.90625 C 9.519531 -99.414062 11.578125 -102.460938 14.171875 -105.046875 C 16.765625 -107.640625 19.8125 -109.695312 23.3125 -111.21875 C 26.820312 -112.75 30.597656 -113.515625 34.640625 -113.515625 L 113.28125 -113.515625 L 113.28125 -80.8125 C 111.90625 -86.53125 109.429688 -91.675781 105.859375 -96.25 C 104.328125 -98.15625 102.492188 -100.0625 100.359375 -101.96875 C 98.234375 -103.789062 95.757812 -105.425781 92.9375 -106.875 C 90.039062 -108.320312 86.765625 -109.503906 83.109375 -110.421875 C 79.453125 -111.265625 75.296875 -111.6875 70.640625 -111.6875 Z M 62.421875 -111.6875 "/></g></g></g></g><g clip-path="url(#725d5b41aa)"><g fill="#0e2349" fill-opacity="1"><g transform="translate(119.749385, 114.358514)"><g><path d="M 48.46875 -111.6875 L 48.46875 -57.734375 L 50.53125 -57.734375 C 53.882812 -57.734375 56.929688 -58.492188 59.671875 -60.015625 C 62.410156 -61.460938 64.773438 -63.0625 66.765625 -64.8125 C 69.117188 -66.875 71.25 -69.273438 73.15625 -72.015625 L 73.15625 -41.5 C 71.25 -44.164062 69.117188 -46.523438 66.765625 -48.578125 C 64.773438 -50.335938 62.410156 -51.976562 59.671875 -53.5 C 56.929688 -55.019531 53.882812 -55.78125 50.53125 -55.78125 L 48.46875 -55.78125 L 48.46875 -1.9375 L 69.15625 -1.9375 C 73.65625 -1.9375 77.734375 -2.394531 81.390625 -3.3125 C 84.972656 -4.15625 88.175781 -5.300781 91 -6.75 C 93.8125 -8.195312 96.25 -9.832031 98.3125 -11.65625 C 100.363281 -13.488281 102.15625 -15.359375 103.6875 -17.265625 C 107.1875 -21.753906 109.625 -26.894531 111 -32.6875 L 111 0 L 5.71875 0 L 5.71875 -1.9375 L 10.28125 -1.9375 L 10.28125 -111.6875 L 5.71875 -111.6875 L 5.71875 -113.515625 L 111 -113.515625 L 111 -80.8125 C 109.625 -86.53125 107.1875 -91.675781 103.6875 -96.25 C 102.15625 -98.15625 100.363281 -100.0625 98.3125 -101.96875 C 96.25 -103.789062 93.8125 -105.425781 91 -106.875 C 88.175781 -108.320312 84.972656 -109.503906 81.390625 -110.421875 C 77.734375 -111.265625 73.65625 -111.6875 69.15625 -111.6875 Z M 48.46875 -111.6875 "/></g></g></g></g><g clip-path="url(#c80967523c)"><g fill="#0e2349" fill-opacity="1"><g transform="translate(236.572205, 114.358514)"><g><path d="M 140.609375 -111.6875 L 140.609375 -1.9375 L 145.171875 -1.9375 L 145.171875 0 L 97.84375 0 L 97.84375 -1.9375 L 102.421875 -1.9375 L 102.421875 -106.765625 L 59.78125 -31.328125 L 55.90625 -31.328125 L 14.171875 -106.765625 L 14.171875 -1.9375 L 18.640625 -1.9375 L 18.640625 0 L 5.71875 0 L 5.71875 -1.9375 L 10.28125 -1.9375 L 10.28125 -111.6875 L 5.71875 -111.6875 L 5.71875 -113.515625 L 39.328125 -113.515625 L 70.53125 -57.15625 L 101.390625 -111.6875 L 97.84375 -111.6875 L 97.84375 -113.515625 L 145.171875 -113.515625 L 145.171875 -111.6875 Z M 140.609375 -111.6875 "/></g></g></g></g><g clip-path="url(#b9d9d68fb6)"><g fill="#0e2349" fill-opacity="1"><g transform="translate(387.573113, 114.358514)"><g><path d="M 126.546875 -1.9375 L 126.546875 0 L 79.21875 0 L 79.21875 -1.9375 L 83.90625 -1.9375 L 71.671875 -39.09375 L 26.171875 -39.09375 L 13.828125 -1.9375 L 18.515625 -1.9375 L 18.515625 0 L 5.71875 0 L 5.71875 -1.9375 L 10.40625 -1.9375 L 46.296875 -111.6875 L 41.5 -111.6875 L 41.5 -113.515625 L 85.625 -113.515625 L 121.96875 -1.9375 Z M 71.109375 -41.03125 L 52.234375 -98.765625 L 49.15625 -108.25 L 26.859375 -41.03125 Z M 71.109375 -41.03125 "/></g></g></g></g><g clip-path="url(#b26d54e8fe)"><g fill="#0e2349" fill-opacity="1"><g transform="translate(519.941799, 114.358514)"><g><path d="M 48.46875 -111.6875 L 48.46875 -1.9375 L 53.15625 -1.9375 L 53.15625 0 L 5.71875 0 L 5.71875 -1.9375 L 10.28125 -1.9375 L 10.28125 -111.6875 L 5.71875 -111.6875 L 5.71875 -113.515625 L 53.15625 -113.515625 L 53.15625 -111.6875 Z M 48.46875 -111.6875 "/></g></g></g></g><g clip-path="url(#9651340342)"><g fill="#0e2349" fill-opacity="1"><g transform="translate(578.810428, 114.358514)"><g><path d="M 112.828125 -111.6875 L 112.828125 -1.9375 L 117.40625 -1.9375 L 117.40625 0 L 74.640625 0 L 14.40625 -106.765625 L 14.40625 -1.9375 L 18.859375 -1.9375 L 18.859375 0 L 5.71875 0 L 5.71875 -1.9375 L 10.515625 -1.9375 L 10.515625 -111.6875 L 5.71875 -111.6875 L 5.71875 -113.515625 L 48.703125 -113.515625 L 108.9375 -6.859375 L 108.9375 -111.6875 L 104.140625 -111.6875 L 104.140625 -113.515625 L 117.40625 -113.515625 L 117.40625 -111.6875 Z M 112.828125 -111.6875 "/></g></g></g></g><g clip-path="url(#26127c7edc)"><g fill="#0e2349" fill-opacity="1"><g transform="translate(702.034501, 114.358514)"><g><path d="M 48.46875 -111.6875 L 48.46875 -57.734375 L 50.53125 -57.734375 C 53.882812 -57.734375 56.929688 -58.492188 59.671875 -60.015625 C 62.410156 -61.460938 64.773438 -63.0625 66.765625 -64.8125 C 69.117188 -66.875 71.25 -69.273438 73.15625 -72.015625 L 73.15625 -41.5 C 71.25 -44.164062 69.117188 -46.523438 66.765625 -48.578125 C 64.773438 -50.335938 62.410156 -51.976562 59.671875 -53.5 C 56.929688 -55.019531 53.882812 -55.78125 50.53125 -55.78125 L 48.46875 -55.78125 L 48.46875 -1.9375 L 69.15625 -1.9375 C 73.65625 -1.9375 77.734375 -2.394531 81.390625 -3.3125 C 84.972656 -4.15625 88.175781 -5.300781 91 -6.75 C 93.8125 -8.195312 96.25 -9.832031 98.3125 -11.65625 C 100.363281 -13.488281 102.15625 -15.359375 103.6875 -17.265625 C 107.1875 -21.753906 109.625 -26.894531 111 -32.6875 L 111 0 L 5.71875 0 L 5.71875 -1.9375 L 10.28125 -1.9375 L 10.28125 -111.6875 L 5.71875 -111.6875 L 5.71875 -113.515625 L 111 -113.515625 L 111 -80.8125 C 109.625 -86.53125 107.1875 -91.675781 103.6875 -96.25 C 102.15625 -98.15625 100.363281 -100.0625 98.3125 -101.96875 C 96.25 -103.789062 93.8125 -105.425781 91 -106.875 C 88.175781 -108.320312 84.972656 -109.503906 81.390625 -110.421875 C 77.734375 -111.265625 73.65625 -111.6875 69.15625 -111.6875 Z M 48.46875 -111.6875 "/></g></g></g></g><g fill="#0e2349" fill-opacity="1"><g transform="translate(818.857315, 114.358514)"><g/></g></g><g clip-path="url(#809e0385a1)"><g fill="#0e2349" fill-opacity="1"><g transform="translate(871.667638, 114.358514)"><g><path d="M 34.640625 -111.796875 L 34.640625 -72.25 L 77.046875 -72.25 C 81.234375 -72.25 84.890625 -71.21875 88.015625 -69.15625 C 91.140625 -67.101562 93.734375 -64.398438 95.796875 -61.046875 C 97.847656 -57.617188 99.410156 -53.769531 100.484375 -49.5 C 101.472656 -45.15625 101.96875 -40.734375 101.96875 -36.234375 C 101.894531 -31.660156 101.359375 -27.242188 100.359375 -22.984375 C 99.296875 -18.640625 97.734375 -14.789062 95.671875 -11.4375 C 93.546875 -8 90.957031 -5.253906 87.90625 -3.203125 C 84.78125 -1.140625 81.160156 -0.109375 77.046875 -0.109375 L 6.75 -0.109375 L 6.75 -32.8125 C 8.113281 -27.019531 10.585938 -21.875 14.171875 -17.375 C 15.703125 -15.46875 17.53125 -13.601562 19.65625 -11.78125 C 21.71875 -9.945312 24.195312 -8.304688 27.09375 -6.859375 C 29.914062 -5.410156 33.191406 -4.265625 36.921875 -3.421875 C 40.578125 -2.515625 44.734375 -2.0625 49.390625 -2.0625 C 53.273438 -2.132812 56.851562 -3.425781 60.125 -5.9375 C 63.320312 -8.382812 66.066406 -11.507812 68.359375 -15.3125 C 70.035156 -18.0625 71.21875 -21.265625 71.90625 -24.921875 C 72.59375 -28.503906 72.894531 -32.125 72.8125 -35.78125 C 72.738281 -39.363281 72.394531 -42.789062 71.78125 -46.0625 C 71.101562 -49.269531 70.226562 -51.863281 69.15625 -53.84375 C 68.007812 -56.125 66.710938 -58.257812 65.265625 -60.25 C 63.816406 -62.226562 62.253906 -63.976562 60.578125 -65.5 C 58.910156 -66.945312 57.160156 -68.128906 55.328125 -69.046875 C 53.421875 -69.878906 51.441406 -70.296875 49.390625 -70.296875 L 37.03125 -70.296875 C 35.8125 -70.296875 34.785156 -70.296875 33.953125 -70.296875 C 33.109375 -70.222656 32.648438 -70.1875 32.578125 -70.1875 L 32.578125 -70.296875 L 5.71875 -70.296875 L 5.71875 -113.734375 L 102.875 -113.734375 L 102.875 -81.046875 C 101.507812 -86.765625 99.070312 -91.867188 95.5625 -96.359375 C 94.039062 -98.265625 92.210938 -100.171875 90.078125 -102.078125 C 87.941406 -103.910156 85.460938 -105.550781 82.640625 -107 C 79.742188 -108.445312 76.46875 -109.628906 72.8125 -110.546875 C 69.082031 -111.378906 64.894531 -111.796875 60.25 -111.796875 Z M 34.640625 -111.796875 "/></g></g></g></g><g clip-path="url(#e5ec57c830)"><g fill="#0e2349" fill-opacity="1"><g transform="translate(980.374551, 114.358514)"><g><path d="M 101.171875 -111.6875 L 101.171875 -1.9375 L 105.734375 -1.9375 L 105.734375 0 L 58.296875 0 L 58.296875 -1.9375 L 62.984375 -1.9375 L 62.984375 -38.859375 L 9.609375 -38.859375 L 9.609375 -38.75 L 5.71875 -38.75 L 5.71875 -38.859375 L 6.515625 -39.890625 L 62.984375 -113.625 L 105.734375 -113.625 L 105.734375 -111.6875 Z M 62.984375 -42.640625 L 62.984375 -108.484375 L 12.453125 -42.640625 Z M 62.984375 -42.640625 "/></g></g></g></g></g></g><g transform="matrix(1, 0, 0, 1, 318, 163)"><g clip-path="url(#b81a77211f)"><g clip-path="url(#63a5e185aa)"><g><g clip-path="url(#5c1d9954fe)"><g fill="#0e2349" fill-opacity="1"><g transform="translate(0.199275, 38.283349)"><g><path d="M 21.171875 -21.21875 C 21.171875 -18.351562 20.273438 -16.222656 18.484375 -14.828125 C 16.703125 -13.429688 14.191406 -12.734375 10.953125 -12.734375 L 4.234375 -12.734375 L 4.234375 0 L 1.109375 0 L 1.109375 -29.71875 L 10.90625 -29.71875 C 14.175781 -29.71875 16.703125 -29.007812 18.484375 -27.59375 C 20.273438 -26.175781 21.171875 -24.050781 21.171875 -21.21875 Z M 18.0625 -21.21875 C 18.0625 -23.269531 17.414062 -24.753906 16.125 -25.671875 C 14.832031 -26.597656 13.109375 -27.0625 10.953125 -27.0625 L 4.234375 -27.0625 L 4.234375 -15.390625 L 10.953125 -15.390625 C 13.109375 -15.390625 14.832031 -15.847656 16.125 -16.765625 C 17.414062 -17.691406 18.0625 -19.175781 18.0625 -21.21875 Z M 18.0625 -21.21875 "/></g></g></g><g fill="#0e2349" fill-opacity="1"><g transform="translate(26.495226, 38.283349)"><g><path d="M -0.046875 -5.734375 C -0.046875 -7.078125 0.285156 -8.195312 0.953125 -9.09375 C 1.617188 -10 2.492188 -10.710938 3.578125 -11.234375 C 4.671875 -11.765625 5.914062 -12.144531 7.3125 -12.375 C 8.71875 -12.613281 10.148438 -12.734375 11.609375 -12.734375 C 12.171875 -12.734375 12.675781 -12.722656 13.125 -12.703125 C 13.570312 -12.691406 14 -12.671875 14.40625 -12.640625 C 14.8125 -12.609375 15.21875 -12.566406 15.625 -12.515625 C 16.03125 -12.472656 16.476562 -12.421875 16.96875 -12.359375 L 16.96875 -13.890625 C 16.96875 -14.921875 16.742188 -15.769531 16.296875 -16.4375 C 15.847656 -17.101562 15.296875 -17.628906 14.640625 -18.015625 C 13.992188 -18.410156 13.3125 -18.6875 12.59375 -18.84375 C 11.882812 -19 11.273438 -19.078125 10.765625 -19.078125 C 9.191406 -19.078125 7.734375 -18.863281 6.390625 -18.4375 C 5.054688 -18.019531 3.816406 -17.453125 2.671875 -16.734375 L 1.25 -19.078125 C 2.53125 -19.859375 3.960938 -20.492188 5.546875 -20.984375 C 7.128906 -21.472656 8.867188 -21.71875 10.765625 -21.71875 C 11.921875 -21.71875 13.054688 -21.570312 14.171875 -21.28125 C 15.285156 -20.988281 16.285156 -20.535156 17.171875 -19.921875 C 18.066406 -19.304688 18.78125 -18.492188 19.3125 -17.484375 C 19.84375 -16.484375 20.109375 -15.285156 20.109375 -13.890625 L 20.109375 0 L 16.96875 0 L 16.96875 -3.546875 C 16.414062 -2.867188 15.796875 -2.269531 15.109375 -1.75 C 14.421875 -1.238281 13.695312 -0.816406 12.9375 -0.484375 C 12.175781 -0.160156 11.414062 0.0859375 10.65625 0.265625 C 9.894531 0.441406 9.175781 0.53125 8.5 0.53125 C 5.6875 0.53125 3.554688 -0.00390625 2.109375 -1.078125 C 0.671875 -2.160156 -0.046875 -3.710938 -0.046875 -5.734375 Z M 8.5 -2.140625 C 9.800781 -2.140625 10.972656 -2.332031 12.015625 -2.71875 C 13.054688 -3.101562 13.941406 -3.582031 14.671875 -4.15625 C 15.398438 -4.738281 15.960938 -5.351562 16.359375 -6 C 16.765625 -6.65625 16.96875 -7.25 16.96875 -7.78125 L 16.96875 -9.796875 C 15.945312 -9.941406 14.96875 -10.019531 14.03125 -10.03125 C 13.101562 -10.050781 12.296875 -10.0625 11.609375 -10.0625 C 10.484375 -10.0625 9.398438 -9.984375 8.359375 -9.828125 C 7.328125 -9.679688 6.421875 -9.4375 5.640625 -9.09375 C 4.867188 -8.75 4.25 -8.304688 3.78125 -7.765625 C 3.3125 -7.222656 3.078125 -6.546875 3.078125 -5.734375 C 3.078125 -4.835938 3.507812 -4.015625 4.375 -3.265625 C 5.25 -2.515625 6.625 -2.140625 8.5 -2.140625 Z M 8.5 -2.140625 "/></g></g></g><g fill="#0e2349" fill-opacity="1"><g transform="translate(52.791176, 38.283349)"><g><path d="M 20.0625 -18.234375 C 18.9375 -18.796875 17.601562 -19.078125 16.0625 -19.078125 C 14.78125 -19.078125 13.640625 -18.800781 12.640625 -18.25 C 11.640625 -17.707031 10.789062 -16.992188 10.09375 -16.109375 C 9.394531 -15.222656 8.859375 -14.207031 8.484375 -13.0625 C 8.109375 -11.914062 7.921875 -10.734375 7.921875 -9.515625 L 7.921875 -2.671875 L 12.734375 -2.671875 L 12.734375 0 L 0 0 L 0 -2.671875 L 4.8125 -2.671875 L 4.8125 -18.5625 L 0 -18.5625 L 0 -21.21875 L 7.921875 -21.21875 L 7.921875 -15.890625 C 9.347656 -19.773438 12.0625 -21.71875 16.0625 -21.71875 C 17.132812 -21.71875 18.066406 -21.648438 18.859375 -21.515625 C 19.660156 -21.378906 20.40625 -21.140625 21.09375 -20.796875 Z M 20.0625 -18.234375 "/></g></g></g><g fill="#0e2349" fill-opacity="1"><g transform="translate(79.087127, 38.283349)"><g><path d="M 21.453125 -6.765625 C 21.210938 -4.535156 20.335938 -2.757812 18.828125 -1.4375 C 17.316406 -0.125 15.425781 0.53125 13.15625 0.53125 C 11.914062 0.53125 10.78125 0.328125 9.75 -0.078125 C 8.71875 -0.492188 7.835938 -1.066406 7.109375 -1.796875 C 6.378906 -2.523438 5.8125 -3.398438 5.40625 -4.421875 C 5.007812 -5.453125 4.8125 -6.570312 4.8125 -7.78125 L 4.8125 -18.5625 L 0 -18.5625 L 0 -21.21875 L 4.8125 -21.21875 L 4.8125 -29.71875 L 7.921875 -29.71875 L 7.921875 -21.21875 L 16.96875 -21.21875 L 16.96875 -18.5625 L 7.921875 -18.5625 L 7.921875 -7.78125 C 7.921875 -7.007812 8.046875 -6.28125 8.296875 -5.59375 C 8.546875 -4.914062 8.894531 -4.316406 9.34375 -3.796875 C 9.789062 -3.285156 10.332031 -2.878906 10.96875 -2.578125 C 11.613281 -2.285156 12.34375 -2.140625 13.15625 -2.140625 C 14.707031 -2.140625 16.003906 -2.617188 17.046875 -3.578125 C 18.085938 -4.546875 18.679688 -5.796875 18.828125 -7.328125 Z M 21.453125 -6.765625 "/></g></g></g><g fill="#0e2349" fill-opacity="1"><g transform="translate(105.383078, 38.283349)"><g><path d="M 3.125 -9.515625 C 3.351562 -7.273438 4.171875 -5.484375 5.578125 -4.140625 C 6.992188 -2.804688 8.832031 -2.140625 11.09375 -2.140625 C 12.6875 -2.140625 14.101562 -2.460938 15.34375 -3.109375 C 16.59375 -3.765625 17.53125 -4.582031 18.15625 -5.5625 L 20.34375 -4.046875 C 19.28125 -2.566406 18.007812 -1.429688 16.53125 -0.640625 C 15.0625 0.140625 13.25 0.53125 11.09375 0.53125 C 9.445312 0.53125 7.941406 0.257812 6.578125 -0.28125 C 5.210938 -0.832031 4.03125 -1.597656 3.03125 -2.578125 C 2.039062 -3.554688 1.269531 -4.722656 0.71875 -6.078125 C 0.175781 -7.429688 -0.09375 -8.9375 -0.09375 -10.59375 C -0.09375 -12.195312 0.148438 -13.675781 0.640625 -15.03125 C 1.140625 -16.394531 1.851562 -17.570312 2.78125 -18.5625 C 3.71875 -19.5625 4.851562 -20.335938 6.1875 -20.890625 C 7.53125 -21.441406 9.03125 -21.71875 10.6875 -21.71875 C 12.488281 -21.71875 14.0625 -21.414062 15.40625 -20.8125 C 16.757812 -20.207031 17.890625 -19.367188 18.796875 -18.296875 C 19.703125 -17.222656 20.367188 -15.941406 20.796875 -14.453125 C 21.234375 -12.972656 21.453125 -11.328125 21.453125 -9.515625 Z M 18.15625 -12.1875 C 17.800781 -14.507812 16.957031 -16.238281 15.625 -17.375 C 14.289062 -18.507812 12.644531 -19.078125 10.6875 -19.078125 C 9.675781 -19.078125 8.742188 -18.914062 7.890625 -18.59375 C 7.046875 -18.269531 6.296875 -17.800781 5.640625 -17.1875 C 4.992188 -16.582031 4.445312 -15.847656 4 -14.984375 C 3.5625 -14.128906 3.285156 -13.195312 3.171875 -12.1875 Z M 18.15625 -12.1875 "/></g></g></g><g fill="#0e2349" fill-opacity="1"><g transform="translate(131.679028, 38.283349)"><g><path d="M 20.109375 0 L 16.96875 0 L 16.96875 -13.09375 C 16.96875 -14.988281 16.554688 -16.457031 15.734375 -17.5 C 14.910156 -18.550781 13.582031 -19.078125 11.75 -19.078125 C 10.59375 -19.078125 9.546875 -18.8125 8.609375 -18.28125 C 7.679688 -17.75 6.890625 -17.039062 6.234375 -16.15625 C 5.585938 -15.269531 5.09375 -14.253906 4.75 -13.109375 C 4.40625 -11.960938 4.234375 -10.765625 4.234375 -9.515625 L 4.234375 0 L 1.109375 0 L 1.109375 -21.21875 L 4.234375 -21.21875 L 4.234375 -15.890625 C 5.734375 -19.773438 8.414062 -21.71875 12.28125 -21.71875 C 17.5 -21.71875 20.109375 -18.84375 20.109375 -13.09375 Z M 20.109375 0 "/></g></g></g><g fill="#0e2349" fill-opacity="1"><g transform="translate(157.974979, 38.283349)"><g><path d="M -0.046875 -5.734375 C -0.046875 -7.078125 0.285156 -8.195312 0.953125 -9.09375 C 1.617188 -10 2.492188 -10.710938 3.578125 -11.234375 C 4.671875 -11.765625 5.914062 -12.144531 7.3125 -12.375 C 8.71875 -12.613281 10.148438 -12.734375 11.609375 -12.734375 C 12.171875 -12.734375 12.675781 -12.722656 13.125 -12.703125 C 13.570312 -12.691406 14 -12.671875 14.40625 -12.640625 C 14.8125 -12.609375 15.21875 -12.566406 15.625 -12.515625 C 16.03125 -12.472656 16.476562 -12.421875 16.96875 -12.359375 L 16.96875 -13.890625 C 16.96875 -14.921875 16.742188 -15.769531 16.296875 -16.4375 C 15.847656 -17.101562 15.296875 -17.628906 14.640625 -18.015625 C 13.992188 -18.410156 13.3125 -18.6875 12.59375 -18.84375 C 11.882812 -19 11.273438 -19.078125 10.765625 -19.078125 C 9.191406 -19.078125 7.734375 -18.863281 6.390625 -18.4375 C 5.054688 -18.019531 3.816406 -17.453125 2.671875 -16.734375 L 1.25 -19.078125 C 2.53125 -19.859375 3.960938 -20.492188 5.546875 -20.984375 C 7.128906 -21.472656 8.867188 -21.71875 10.765625 -21.71875 C 11.921875 -21.71875 13.054688 -21.570312 14.171875 -21.28125 C 15.285156 -20.988281 16.285156 -20.535156 17.171875 -19.921875 C 18.066406 -19.304688 18.78125 -18.492188 19.3125 -17.484375 C 19.84375 -16.484375 20.109375 -15.285156 20.109375 -13.890625 L 20.109375 0 L 16.96875 0 L 16.96875 -3.546875 C 16.414062 -2.867188 15.796875 -2.269531 15.109375 -1.75 C 14.421875 -1.238281 13.695312 -0.816406 12.9375 -0.484375 C 12.175781 -0.160156 11.414062 0.0859375 10.65625 0.265625 C 9.894531 0.441406 9.175781 0.53125 8.5 0.53125 C 5.6875 0.53125 3.554688 -0.00390625 2.109375 -1.078125 C 0.671875 -2.160156 -0.046875 -3.710938 -0.046875 -5.734375 Z M 8.5 -2.140625 C 9.800781 -2.140625 10.972656 -2.332031 12.015625 -2.71875 C 13.054688 -3.101562 13.941406 -3.582031 14.671875 -4.15625 C 15.398438 -4.738281 15.960938 -5.351562 16.359375 -6 C 16.765625 -6.65625 16.96875 -7.25 16.96875 -7.78125 L 16.96875 -9.796875 C 15.945312 -9.941406 14.96875 -10.019531 14.03125 -10.03125 C 13.101562 -10.050781 12.296875 -10.0625 11.609375 -10.0625 C 10.484375 -10.0625 9.398438 -9.984375 8.359375 -9.828125 C 7.328125 -9.679688 6.421875 -9.4375 5.640625 -9.09375 C 4.867188 -8.75 4.25 -8.304688 3.78125 -7.765625 C 3.3125 -7.222656 3.078125 -6.546875 3.078125 -5.734375 C 3.078125 -4.835938 3.507812 -4.015625 4.375 -3.265625 C 5.25 -2.515625 6.625 -2.140625 8.5 -2.140625 Z M 8.5 -2.140625 "/></g></g></g><g fill="#0e2349" fill-opacity="1"><g transform="translate(184.27093, 38.283349)"><g><path d="M 12.734375 -25.46875 L 8.5 -25.46875 L 8.5 -29.71875 L 12.734375 -29.71875 Z M 16.96875 0 L 4.234375 0 L 4.234375 -2.671875 L 9.046875 -2.671875 L 9.046875 -18.5625 L 4.234375 -18.5625 L 4.234375 -21.21875 L 12.1875 -21.21875 L 12.1875 -2.671875 L 16.96875 -2.671875 Z M 16.96875 0 "/></g></g></g><g fill="#0e2349" fill-opacity="1"><g transform="translate(210.56688, 38.283349)"><g><path d="M 20.0625 -18.234375 C 18.9375 -18.796875 17.601562 -19.078125 16.0625 -19.078125 C 14.78125 -19.078125 13.640625 -18.800781 12.640625 -18.25 C 11.640625 -17.707031 10.789062 -16.992188 10.09375 -16.109375 C 9.394531 -15.222656 8.859375 -14.207031 8.484375 -13.0625 C 8.109375 -11.914062 7.921875 -10.734375 7.921875 -9.515625 L 7.921875 -2.671875 L 12.734375 -2.671875 L 12.734375 0 L 0 0 L 0 -2.671875 L 4.8125 -2.671875 L 4.8125 -18.5625 L 0 -18.5625 L 0 -21.21875 L 7.921875 -21.21875 L 7.921875 -15.890625 C 9.347656 -19.773438 12.0625 -21.71875 16.0625 -21.71875 C 17.132812 -21.71875 18.066406 -21.648438 18.859375 -21.515625 C 19.660156 -21.378906 20.40625 -21.140625 21.09375 -20.796875 Z M 20.0625 -18.234375 "/></g></g></g><g fill="#0e2349" fill-opacity="1"><g transform="translate(236.862831, 38.283349)"><g><path d="M 3.125 -9.515625 C 3.351562 -7.273438 4.171875 -5.484375 5.578125 -4.140625 C 6.992188 -2.804688 8.832031 -2.140625 11.09375 -2.140625 C 12.6875 -2.140625 14.101562 -2.460938 15.34375 -3.109375 C 16.59375 -3.765625 17.53125 -4.582031 18.15625 -5.5625 L 20.34375 -4.046875 C 19.28125 -2.566406 18.007812 -1.429688 16.53125 -0.640625 C 15.0625 0.140625 13.25 0.53125 11.09375 0.53125 C 9.445312 0.53125 7.941406 0.257812 6.578125 -0.28125 C 5.210938 -0.832031 4.03125 -1.597656 3.03125 -2.578125 C 2.039062 -3.554688 1.269531 -4.722656 0.71875 -6.078125 C 0.175781 -7.429688 -0.09375 -8.9375 -0.09375 -10.59375 C -0.09375 -12.195312 0.148438 -13.675781 0.640625 -15.03125 C 1.140625 -16.394531 1.851562 -17.570312 2.78125 -18.5625 C 3.71875 -19.5625 4.851562 -20.335938 6.1875 -20.890625 C 7.53125 -21.441406 9.03125 -21.71875 10.6875 -21.71875 C 12.488281 -21.71875 14.0625 -21.414062 15.40625 -20.8125 C 16.757812 -20.207031 17.890625 -19.367188 18.796875 -18.296875 C 19.703125 -17.222656 20.367188 -15.941406 20.796875 -14.453125 C 21.234375 -12.972656 21.453125 -11.328125 21.453125 -9.515625 Z M 18.15625 -12.1875 C 17.800781 -14.507812 16.957031 -16.238281 15.625 -17.375 C 14.289062 -18.507812 12.644531 -19.078125 10.6875 -19.078125 C 9.675781 -19.078125 8.742188 -18.914062 7.890625 -18.59375 C 7.046875 -18.269531 6.296875 -17.800781 5.640625 -17.1875 C 4.992188 -16.582031 4.445312 -15.847656 4 -14.984375 C 3.5625 -14.128906 3.285156 -13.195312 3.171875 -12.1875 Z M 18.15625 -12.1875 "/></g></g></g><g fill="#0e2349" fill-opacity="1"><g transform="translate(263.162801, 38.283349)"><g/></g></g><g fill="#0e2349" fill-opacity="1"><g transform="translate(289.458752, 38.283349)"><g/></g></g><g fill="#0e2349" fill-opacity="1"><g transform="translate(315.754703, 38.283349)"><g/></g></g><g fill="#0e2349" fill-opacity="1"><g transform="translate(342.050653, 38.283349)"><g/></g></g><g fill="#0e2349" fill-opacity="1"><g transform="translate(368.346601, 38.283349)"><g><path d="M -0.046875 -5.734375 C -0.046875 -7.078125 0.285156 -8.195312 0.953125 -9.09375 C 1.617188 -10 2.492188 -10.710938 3.578125 -11.234375 C 4.671875 -11.765625 5.914062 -12.144531 7.3125 -12.375 C 8.71875 -12.613281 10.148438 -12.734375 11.609375 -12.734375 C 12.171875 -12.734375 12.675781 -12.722656 13.125 -12.703125 C 13.570312 -12.691406 14 -12.671875 14.40625 -12.640625 C 14.8125 -12.609375 15.21875 -12.566406 15.625 -12.515625 C 16.03125 -12.472656 16.476562 -12.421875 16.96875 -12.359375 L 16.96875 -13.890625 C 16.96875 -14.921875 16.742188 -15.769531 16.296875 -16.4375 C 15.847656 -17.101562 15.296875 -17.628906 14.640625 -18.015625 C 13.992188 -18.410156 13.3125 -18.6875 12.59375 -18.84375 C 11.882812 -19 11.273438 -19.078125 10.765625 -19.078125 C 9.191406 -19.078125 7.734375 -18.863281 6.390625 -18.4375 C 5.054688 -18.019531 3.816406 -17.453125 2.671875 -16.734375 L 1.25 -19.078125 C 2.53125 -19.859375 3.960938 -20.492188 5.546875 -20.984375 C 7.128906 -21.472656 8.867188 -21.71875 10.765625 -21.71875 C 11.921875 -21.71875 13.054688 -21.570312 14.171875 -21.28125 C 15.285156 -20.988281 16.285156 -20.535156 17.171875 -19.921875 C 18.066406 -19.304688 18.78125 -18.492188 19.3125 -17.484375 C 19.84375 -16.484375 20.109375 -15.285156 20.109375 -13.890625 L 20.109375 0 L 16.96875 0 L 16.96875 -3.546875 C 16.414062 -2.867188 15.796875 -2.269531 15.109375 -1.75 C 14.421875 -1.238281 13.695312 -0.816406 12.9375 -0.484375 C 12.175781 -0.160156 11.414062 0.0859375 10.65625 0.265625 C 9.894531 0.441406 9.175781 0.53125 8.5 0.53125 C 5.6875 0.53125 3.554688 -0.00390625 2.109375 -1.078125 C 0.671875 -2.160156 -0.046875 -3.710938 -0.046875 -5.734375 Z M 8.5 -2.140625 C 9.800781 -2.140625 10.972656 -2.332031 12.015625 -2.71875 C 13.054688 -3.101562 13.941406 -3.582031 14.671875 -4.15625 C 15.398438 -4.738281 15.960938 -5.351562 16.359375 -6 C 16.765625 -6.65625 16.96875 -7.25 16.96875 -7.78125 L 16.96875 -9.796875 C 15.945312 -9.941406 14.96875 -10.019531 14.03125 -10.03125 C 13.101562 -10.050781 12.296875 -10.0625 11.609375 -10.0625 C 10.484375 -10.0625 9.398438 -9.984375 8.359375 -9.828125 C 7.328125 -9.679688 6.421875 -9.4375 5.640625 -9.09375 C 4.867188 -8.75 4.25 -8.304688 3.78125 -7.765625 C 3.3125 -7.222656 3.078125 -6.546875 3.078125 -5.734375 C 3.078125 -4.835938 3.507812 -4.015625 4.375 -3.265625 C 5.25 -2.515625 6.625 -2.140625 8.5 -2.140625 Z M 8.5 -2.140625 "/></g></g></g><g fill="#0e2349" fill-opacity="1"><g transform="translate(394.642552, 38.283349)"><g><path d="M 1.109375 -21.21875 L 4.234375 -21.21875 L 4.234375 -8.109375 C 4.234375 -6.210938 4.644531 -4.742188 5.46875 -3.703125 C 6.300781 -2.660156 7.632812 -2.140625 9.46875 -2.140625 C 10.625 -2.140625 11.664062 -2.40625 12.59375 -2.9375 C 13.519531 -3.46875 14.304688 -4.175781 14.953125 -5.0625 C 15.609375 -5.957031 16.109375 -6.976562 16.453125 -8.125 C 16.796875 -9.269531 16.96875 -10.460938 16.96875 -11.703125 L 16.96875 -21.21875 L 20.109375 -21.21875 L 20.109375 0 L 16.96875 0 L 16.96875 -5.3125 C 15.476562 -1.414062 12.804688 0.53125 8.953125 0.53125 C 3.722656 0.53125 1.109375 -2.347656 1.109375 -8.109375 Z M 1.109375 -21.21875 "/></g></g></g><g fill="#0e2349" fill-opacity="1"><g transform="translate(420.938502, 38.283349)"><g/></g></g><g fill="#0e2349" fill-opacity="1"><g transform="translate(447.234453, 38.283349)"><g><path d="M 20.65625 -5.875 C 20.65625 -4.632812 20.34375 -3.601562 19.71875 -2.78125 C 19.09375 -1.957031 18.289062 -1.300781 17.3125 -0.8125 C 16.332031 -0.332031 15.238281 0.0078125 14.03125 0.21875 C 12.832031 0.425781 11.65625 0.53125 10.5 0.53125 C 8.570312 0.53125 6.648438 0.25 4.734375 -0.3125 C 2.828125 -0.875 1.171875 -1.613281 -0.234375 -2.53125 L 1.15625 -5.21875 C 2.71875 -4.226562 4.257812 -3.46875 5.78125 -2.9375 C 7.300781 -2.40625 8.875 -2.140625 10.5 -2.140625 C 15.1875 -2.140625 17.53125 -3.351562 17.53125 -5.78125 C 17.53125 -6.375 17.335938 -6.851562 16.953125 -7.21875 C 16.566406 -7.59375 16.046875 -7.898438 15.390625 -8.140625 C 14.742188 -8.378906 14 -8.566406 13.15625 -8.703125 C 12.3125 -8.835938 11.425781 -8.96875 10.5 -9.09375 C 9.3125 -9.257812 8.132812 -9.453125 6.96875 -9.671875 C 5.800781 -9.898438 4.734375 -10.242188 3.765625 -10.703125 C 2.804688 -11.160156 2.03125 -11.769531 1.4375 -12.53125 C 0.851562 -13.289062 0.5625 -14.289062 0.5625 -15.53125 C 0.5625 -16.59375 0.832031 -17.507812 1.375 -18.28125 C 1.914062 -19.0625 2.632812 -19.707031 3.53125 -20.21875 C 4.4375 -20.738281 5.5 -21.117188 6.71875 -21.359375 C 7.9375 -21.597656 9.195312 -21.71875 10.5 -21.71875 C 12.363281 -21.71875 14.03125 -21.5 15.5 -21.0625 C 16.976562 -20.632812 18.3125 -20.019531 19.5 -19.21875 L 18.234375 -16.78125 C 17.023438 -17.632812 15.796875 -18.226562 14.546875 -18.5625 C 13.304688 -18.90625 11.957031 -19.078125 10.5 -19.078125 C 9.84375 -19.078125 9.113281 -19.019531 8.3125 -18.90625 C 7.519531 -18.800781 6.78125 -18.609375 6.09375 -18.328125 C 5.414062 -18.046875 4.84375 -17.679688 4.375 -17.234375 C 3.914062 -16.785156 3.6875 -16.21875 3.6875 -15.53125 C 3.6875 -14.9375 3.878906 -14.460938 4.265625 -14.109375 C 4.648438 -13.753906 5.171875 -13.457031 5.828125 -13.21875 C 6.484375 -12.976562 7.234375 -12.789062 8.078125 -12.65625 C 8.921875 -12.519531 9.800781 -12.394531 10.71875 -12.28125 C 11.875 -12.113281 13.039062 -11.914062 14.21875 -11.6875 C 15.394531 -11.457031 16.460938 -11.117188 17.421875 -10.671875 C 18.390625 -10.234375 19.171875 -9.632812 19.765625 -8.875 C 20.359375 -8.125 20.65625 -7.125 20.65625 -5.875 Z M 20.65625 -5.875 "/></g></g></g><g fill="#0e2349" fill-opacity="1"><g transform="translate(473.530404, 38.283349)"><g><path d="M 3.125 -9.515625 C 3.351562 -7.273438 4.171875 -5.484375 5.578125 -4.140625 C 6.992188 -2.804688 8.832031 -2.140625 11.09375 -2.140625 C 12.6875 -2.140625 14.101562 -2.460938 15.34375 -3.109375 C 16.59375 -3.765625 17.53125 -4.582031 18.15625 -5.5625 L 20.34375 -4.046875 C 19.28125 -2.566406 18.007812 -1.429688 16.53125 -0.640625 C 15.0625 0.140625 13.25 0.53125 11.09375 0.53125 C 9.445312 0.53125 7.941406 0.257812 6.578125 -0.28125 C 5.210938 -0.832031 4.03125 -1.597656 3.03125 -2.578125 C 2.039062 -3.554688 1.269531 -4.722656 0.71875 -6.078125 C 0.175781 -7.429688 -0.09375 -8.9375 -0.09375 -10.59375 C -0.09375 -12.195312 0.148438 -13.675781 0.640625 -15.03125 C 1.140625 -16.394531 1.851562 -17.570312 2.78125 -18.5625 C 3.71875 -19.5625 4.851562 -20.335938 6.1875 -20.890625 C 7.53125 -21.441406 9.03125 -21.71875 10.6875 -21.71875 C 12.488281 -21.71875 14.0625 -21.414062 15.40625 -20.8125 C 16.757812 -20.207031 17.890625 -19.367188 18.796875 -18.296875 C 19.703125 -17.222656 20.367188 -15.941406 20.796875 -14.453125 C 21.234375 -12.972656 21.453125 -11.328125 21.453125 -9.515625 Z M 18.15625 -12.1875 C 17.800781 -14.507812 16.957031 -16.238281 15.625 -17.375 C 14.289062 -18.507812 12.644531 -19.078125 10.6875 -19.078125 C 9.675781 -19.078125 8.742188 -18.914062 7.890625 -18.59375 C 7.046875 -18.269531 6.296875 -17.800781 5.640625 -17.1875 C 4.992188 -16.582031 4.445312 -15.847656 4 -14.984375 C 3.5625 -14.128906 3.285156 -13.195312 3.171875 -12.1875 Z M 18.15625 -12.1875 "/></g></g></g><g fill="#0e2349" fill-opacity="1"><g transform="translate(499.826354, 38.283349)"><g><path d="M 20.0625 -18.234375 C 18.9375 -18.796875 17.601562 -19.078125 16.0625 -19.078125 C 14.78125 -19.078125 13.640625 -18.800781 12.640625 -18.25 C 11.640625 -17.707031 10.789062 -16.992188 10.09375 -16.109375 C 9.394531 -15.222656 8.859375 -14.207031 8.484375 -13.0625 C 8.109375 -11.914062 7.921875 -10.734375 7.921875 -9.515625 L 7.921875 -2.671875 L 12.734375 -2.671875 L 12.734375 0 L 0 0 L 0 -2.671875 L 4.8125 -2.671875 L 4.8125 -18.5625 L 0 -18.5625 L 0 -21.21875 L 7.921875 -21.21875 L 7.921875 -15.890625 C 9.347656 -19.773438 12.0625 -21.71875 16.0625 -21.71875 C 17.132812 -21.71875 18.066406 -21.648438 18.859375 -21.515625 C 19.660156 -21.378906 20.40625 -21.140625 21.09375 -20.796875 Z M 20.0625 -18.234375 "/></g></g></g><g fill="#0e2349" fill-opacity="1"><g transform="translate(526.122305, 38.283349)"><g><path d="M 21.9375 -21.21875 L 12.734375 0 L 8.546875 0 L -0.703125 -21.21875 L 3.03125 -21.21875 L 10.640625 -2.625 L 18.203125 -21.21875 Z M 21.9375 -21.21875 "/></g></g></g><g fill="#0e2349" fill-opacity="1"><g transform="translate(552.418256, 38.283349)"><g><path d="M 12.734375 -25.46875 L 8.5 -25.46875 L 8.5 -29.71875 L 12.734375 -29.71875 Z M 16.96875 0 L 4.234375 0 L 4.234375 -2.671875 L 9.046875 -2.671875 L 9.046875 -18.5625 L 4.234375 -18.5625 L 4.234375 -21.21875 L 12.1875 -21.21875 L 12.1875 -2.671875 L 16.96875 -2.671875 Z M 16.96875 0 "/></g></g></g><g fill="#0e2349" fill-opacity="1"><g transform="translate(578.714206, 38.283349)"><g><path d="M 20.421875 -4.046875 C 19.523438 -2.648438 18.300781 -1.535156 16.75 -0.703125 C 15.195312 0.117188 13.347656 0.53125 11.203125 0.53125 C 9.546875 0.53125 8.023438 0.257812 6.640625 -0.28125 C 5.265625 -0.832031 4.085938 -1.597656 3.109375 -2.578125 C 2.128906 -3.554688 1.363281 -4.722656 0.8125 -6.078125 C 0.269531 -7.429688 0 -8.9375 0 -10.59375 C 0 -12.195312 0.25 -13.6875 0.75 -15.0625 C 1.25 -16.4375 1.960938 -17.613281 2.890625 -18.59375 C 3.816406 -19.570312 4.953125 -20.335938 6.296875 -20.890625 C 7.640625 -21.441406 9.128906 -21.71875 10.765625 -21.71875 C 11.421875 -21.71875 12.085938 -21.640625 12.765625 -21.484375 C 13.453125 -21.335938 14.097656 -21.109375 14.703125 -20.796875 C 15.316406 -20.492188 15.863281 -20.125 16.34375 -19.6875 C 16.832031 -19.25 17.195312 -18.738281 17.4375 -18.15625 L 17.4375 -21.21875 L 20.25 -21.21875 L 20.25 -12.734375 L 17.4375 -12.734375 C 17.4375 -13.671875 17.265625 -14.523438 16.921875 -15.296875 C 16.585938 -16.078125 16.125 -16.75 15.53125 -17.3125 C 14.9375 -17.875 14.226562 -18.304688 13.40625 -18.609375 C 12.59375 -18.921875 11.710938 -19.078125 10.765625 -19.078125 C 9.492188 -19.078125 8.382812 -18.859375 7.4375 -18.421875 C 6.488281 -17.984375 5.691406 -17.382812 5.046875 -16.625 C 4.410156 -15.863281 3.929688 -14.96875 3.609375 -13.9375 C 3.285156 -12.914062 3.125 -11.800781 3.125 -10.59375 C 3.125 -9.375 3.304688 -8.25 3.671875 -7.21875 C 4.046875 -6.195312 4.585938 -5.316406 5.296875 -4.578125 C 6.003906 -3.835938 6.851562 -3.242188 7.84375 -2.796875 C 8.84375 -2.359375 9.960938 -2.140625 11.203125 -2.140625 C 12.785156 -2.140625 14.191406 -2.453125 15.421875 -3.078125 C 16.648438 -3.703125 17.585938 -4.53125 18.234375 -5.5625 Z M 20.421875 -4.046875 "/></g></g></g><g fill="#0e2349" fill-opacity="1"><g transform="translate(605.010157, 38.283349)"><g><path d="M 3.125 -9.515625 C 3.351562 -7.273438 4.171875 -5.484375 5.578125 -4.140625 C 6.992188 -2.804688 8.832031 -2.140625 11.09375 -2.140625 C 12.6875 -2.140625 14.101562 -2.460938 15.34375 -3.109375 C 16.59375 -3.765625 17.53125 -4.582031 18.15625 -5.5625 L 20.34375 -4.046875 C 19.28125 -2.566406 18.007812 -1.429688 16.53125 -0.640625 C 15.0625 0.140625 13.25 0.53125 11.09375 0.53125 C 9.445312 0.53125 7.941406 0.257812 6.578125 -0.28125 C 5.210938 -0.832031 4.03125 -1.597656 3.03125 -2.578125 C 2.039062 -3.554688 1.269531 -4.722656 0.71875 -6.078125 C 0.175781 -7.429688 -0.09375 -8.9375 -0.09375 -10.59375 C -0.09375 -12.195312 0.148438 -13.675781 0.640625 -15.03125 C 1.140625 -16.394531 1.851562 -17.570312 2.78125 -18.5625 C 3.71875 -19.5625 4.851562 -20.335938 6.1875 -20.890625 C 7.53125 -21.441406 9.03125 -21.71875 10.6875 -21.71875 C 12.488281 -21.71875 14.0625 -21.414062 15.40625 -20.8125 C 16.757812 -20.207031 17.890625 -19.367188 18.796875 -18.296875 C 19.703125 -17.222656 20.367188 -15.941406 20.796875 -14.453125 C 21.234375 -12.972656 21.453125 -11.328125 21.453125 -9.515625 Z M 18.15625 -12.1875 C 17.800781 -14.507812 16.957031 -16.238281 15.625 -17.375 C 14.289062 -18.507812 12.644531 -19.078125 10.6875 -19.078125 C 9.675781 -19.078125 8.742188 -18.914062 7.890625 -18.59375 C 7.046875 -18.269531 6.296875 -17.800781 5.640625 -17.1875 C 4.992188 -16.582031 4.445312 -15.847656 4 -14.984375 C 3.5625 -14.128906 3.285156 -13.195312 3.171875 -12.1875 Z M 18.15625 -12.1875 "/></g></g></g><g fill="#0e2349" fill-opacity="1"><g transform="translate(631.306107, 38.283349)"><g/></g></g><g fill="#0e2349" fill-opacity="1"><g transform="translate(657.602058, 38.283349)"><g><path d="M 20.109375 0 L 16.96875 0 L 16.96875 -1.953125 C 16.070312 -1.148438 15.085938 -0.535156 14.015625 -0.109375 C 12.941406 0.316406 11.84375 0.53125 10.71875 0.53125 C 9.039062 0.53125 7.53125 0.257812 6.1875 -0.28125 C 4.851562 -0.832031 3.726562 -1.597656 2.8125 -2.578125 C 1.894531 -3.554688 1.1875 -4.726562 0.6875 -6.09375 C 0.195312 -7.46875 -0.046875 -8.96875 -0.046875 -10.59375 C -0.046875 -12.195312 0.195312 -13.6875 0.6875 -15.0625 C 1.1875 -16.4375 1.894531 -17.613281 2.8125 -18.59375 C 3.726562 -19.570312 4.851562 -20.335938 6.1875 -20.890625 C 7.53125 -21.441406 9.039062 -21.71875 10.71875 -21.71875 C 11.84375 -21.71875 12.941406 -21.515625 14.015625 -21.109375 C 15.085938 -20.710938 16.070312 -20.113281 16.96875 -19.3125 L 16.96875 -27.0625 L 12.734375 -27.0625 L 12.734375 -29.71875 L 20.109375 -29.71875 Z M 16.96875 -16.28125 C 16.070312 -17.269531 15.09375 -17.984375 14.03125 -18.421875 C 12.976562 -18.859375 11.863281 -19.078125 10.6875 -19.078125 C 9.4375 -19.078125 8.335938 -18.859375 7.390625 -18.421875 C 6.441406 -17.984375 5.644531 -17.382812 5 -16.625 C 4.363281 -15.863281 3.882812 -14.96875 3.5625 -13.9375 C 3.238281 -12.914062 3.078125 -11.800781 3.078125 -10.59375 C 3.078125 -9.375 3.238281 -8.25 3.5625 -7.21875 C 3.882812 -6.195312 4.363281 -5.304688 5 -4.546875 C 5.644531 -3.796875 6.441406 -3.195312 7.390625 -2.75 C 8.335938 -2.3125 9.4375 -2.09375 10.6875 -2.09375 C 13.082031 -2.09375 15.175781 -3.039062 16.96875 -4.9375 Z M 16.96875 -16.28125 "/></g></g></g><g fill="#0e2349" fill-opacity="1"><g transform="translate(683.898009, 38.283349)"><g><path d="M 1.109375 -21.21875 L 4.234375 -21.21875 L 4.234375 -8.109375 C 4.234375 -6.210938 4.644531 -4.742188 5.46875 -3.703125 C 6.300781 -2.660156 7.632812 -2.140625 9.46875 -2.140625 C 10.625 -2.140625 11.664062 -2.40625 12.59375 -2.9375 C 13.519531 -3.46875 14.304688 -4.175781 14.953125 -5.0625 C 15.609375 -5.957031 16.109375 -6.976562 16.453125 -8.125 C 16.796875 -9.269531 16.96875 -10.460938 16.96875 -11.703125 L 16.96875 -21.21875 L 20.109375 -21.21875 L 20.109375 0 L 16.96875 0 L 16.96875 -5.3125 C 15.476562 -1.414062 12.804688 0.53125 8.953125 0.53125 C 3.722656 0.53125 1.109375 -2.347656 1.109375 -8.109375 Z M 1.109375 -21.21875 "/></g></g></g><g fill="#0e2349" fill-opacity="1"><g transform="translate(710.193959, 38.283349)"><g/></g></g><g fill="#0e2349" fill-opacity="1"><g transform="translate(736.48991, 38.283349)"><g><path d="M 21.453125 -6.765625 C 21.210938 -4.535156 20.335938 -2.757812 18.828125 -1.4375 C 17.316406 -0.125 15.425781 0.53125 13.15625 0.53125 C 11.914062 0.53125 10.78125 0.328125 9.75 -0.078125 C 8.71875 -0.492188 7.835938 -1.066406 7.109375 -1.796875 C 6.378906 -2.523438 5.8125 -3.398438 5.40625 -4.421875 C 5.007812 -5.453125 4.8125 -6.570312 4.8125 -7.78125 L 4.8125 -18.5625 L 0 -18.5625 L 0 -21.21875 L 4.8125 -21.21875 L 4.8125 -29.71875 L 7.921875 -29.71875 L 7.921875 -21.21875 L 16.96875 -21.21875 L 16.96875 -18.5625 L 7.921875 -18.5625 L 7.921875 -7.78125 C 7.921875 -7.007812 8.046875 -6.28125 8.296875 -5.59375 C 8.546875 -4.914062 8.894531 -4.316406 9.34375 -3.796875 C 9.789062 -3.285156 10.332031 -2.878906 10.96875 -2.578125 C 11.613281 -2.285156 12.34375 -2.140625 13.15625 -2.140625 C 14.707031 -2.140625 16.003906 -2.617188 17.046875 -3.578125 C 18.085938 -4.546875 18.679688 -5.796875 18.828125 -7.328125 Z M 21.453125 -6.765625 "/></g></g></g><g fill="#0e2349" fill-opacity="1"><g transform="translate(762.785861, 38.283349)"><g><path d="M 3.125 -9.515625 C 3.351562 -7.273438 4.171875 -5.484375 5.578125 -4.140625 C 6.992188 -2.804688 8.832031 -2.140625 11.09375 -2.140625 C 12.6875 -2.140625 14.101562 -2.460938 15.34375 -3.109375 C 16.59375 -3.765625 17.53125 -4.582031 18.15625 -5.5625 L 20.34375 -4.046875 C 19.28125 -2.566406 18.007812 -1.429688 16.53125 -0.640625 C 15.0625 0.140625 13.25 0.53125 11.09375 0.53125 C 9.445312 0.53125 7.941406 0.257812 6.578125 -0.28125 C 5.210938 -0.832031 4.03125 -1.597656 3.03125 -2.578125 C 2.039062 -3.554688 1.269531 -4.722656 0.71875 -6.078125 C 0.175781 -7.429688 -0.09375 -8.9375 -0.09375 -10.59375 C -0.09375 -12.195312 0.148438 -13.675781 0.640625 -15.03125 C 1.140625 -16.394531 1.851562 -17.570312 2.78125 -18.5625 C 3.71875 -19.5625 4.851562 -20.335938 6.1875 -20.890625 C 7.53125 -21.441406 9.03125 -21.71875 10.6875 -21.71875 C 12.488281 -21.71875 14.0625 -21.414062 15.40625 -20.8125 C 16.757812 -20.207031 17.890625 -19.367188 18.796875 -18.296875 C 19.703125 -17.222656 20.367188 -15.941406 20.796875 -14.453125 C 21.234375 -12.972656 21.453125 -11.328125 21.453125 -9.515625 Z M 18.15625 -12.1875 C 17.800781 -14.507812 16.957031 -16.238281 15.625 -17.375 C 14.289062 -18.507812 12.644531 -19.078125 10.6875 -19.078125 C 9.675781 -19.078125 8.742188 -18.914062 7.890625 -18.59375 C 7.046875 -18.269531 6.296875 -17.800781 5.640625 -17.1875 C 4.992188 -16.582031 4.445312 -15.847656 4 -14.984375 C 3.5625 -14.128906 3.285156 -13.195312 3.171875 -12.1875 Z M 18.15625 -12.1875 "/></g></g></g><g fill="#0e2349" fill-opacity="1"><g transform="translate(789.081811, 38.283349)"><g><path d="M 21.21875 0 L 18.109375 0 L 18.109375 -15.265625 C 18.109375 -16.472656 17.894531 -17.410156 17.46875 -18.078125 C 17.039062 -18.742188 16.425781 -19.078125 15.625 -19.078125 C 14.4375 -19.078125 13.566406 -18.453125 13.015625 -17.203125 C 12.460938 -15.960938 12.1875 -14.222656 12.1875 -11.984375 L 12.1875 0 L 9.046875 0 L 9.046875 -15.265625 C 9.046875 -16.472656 8.828125 -17.410156 8.390625 -18.078125 C 7.960938 -18.742188 7.34375 -19.078125 6.53125 -19.078125 C 5.789062 -19.078125 5.195312 -18.859375 4.75 -18.421875 C 4.3125 -17.984375 3.96875 -17.421875 3.71875 -16.734375 C 3.46875 -16.054688 3.304688 -15.296875 3.234375 -14.453125 C 3.160156 -13.617188 3.125 -12.796875 3.125 -11.984375 L 3.125 0 L 0 0 L 0 -21.21875 L 3.125 -21.21875 L 3.125 -18.15625 C 3.769531 -20.53125 5.1875 -21.71875 7.375 -21.71875 C 9.457031 -21.71875 10.867188 -20.679688 11.609375 -18.609375 C 12.640625 -20.679688 14.097656 -21.71875 15.984375 -21.71875 C 17.796875 -21.71875 19.117188 -21.179688 19.953125 -20.109375 C 20.796875 -19.046875 21.21875 -17.429688 21.21875 -15.265625 Z M 21.21875 0 "/></g></g></g><g fill="#0e2349" fill-opacity="1"><g transform="translate(815.377762, 38.283349)"><g><path d="M 21.21875 -10.59375 C 21.21875 -8.9375 20.957031 -7.429688 20.4375 -6.078125 C 19.925781 -4.722656 19.203125 -3.554688 18.265625 -2.578125 C 17.335938 -1.597656 16.210938 -0.832031 14.890625 -0.28125 C 13.566406 0.257812 12.085938 0.53125 10.453125 0.53125 C 9.328125 0.53125 8.238281 0.328125 7.1875 -0.078125 C 6.132812 -0.492188 5.148438 -1.101562 4.234375 -1.90625 L 4.234375 8.5 L 1.109375 8.5 L 1.109375 -21.21875 L 4.234375 -21.21875 L 4.234375 -19.265625 C 6.160156 -20.898438 8.234375 -21.71875 10.453125 -21.71875 C 12.085938 -21.71875 13.566406 -21.445312 14.890625 -20.90625 C 16.210938 -20.375 17.335938 -19.609375 18.265625 -18.609375 C 19.203125 -17.617188 19.925781 -16.4375 20.4375 -15.0625 C 20.957031 -13.6875 21.21875 -12.195312 21.21875 -10.59375 Z M 18.109375 -10.59375 C 18.109375 -11.769531 17.941406 -12.878906 17.609375 -13.921875 C 17.285156 -14.960938 16.796875 -15.863281 16.140625 -16.625 C 15.492188 -17.382812 14.695312 -17.984375 13.75 -18.421875 C 12.800781 -18.859375 11.703125 -19.078125 10.453125 -19.078125 C 9.265625 -19.078125 8.160156 -18.859375 7.140625 -18.421875 C 6.117188 -17.984375 5.148438 -17.269531 4.234375 -16.28125 L 4.234375 -4.890625 C 5.148438 -3.910156 6.117188 -3.207031 7.140625 -2.78125 C 8.160156 -2.351562 9.265625 -2.140625 10.453125 -2.140625 C 11.703125 -2.140625 12.800781 -2.359375 13.75 -2.796875 C 14.695312 -3.242188 15.492188 -3.84375 16.140625 -4.59375 C 16.796875 -5.351562 17.285156 -6.242188 17.609375 -7.265625 C 17.941406 -8.296875 18.109375 -9.40625 18.109375 -10.59375 Z M 18.109375 -10.59375 "/></g></g></g><g fill="#0e2349" fill-opacity="1"><g transform="translate(841.673713, 38.283349)"><g><path d="M 20.65625 -5.875 C 20.65625 -4.632812 20.34375 -3.601562 19.71875 -2.78125 C 19.09375 -1.957031 18.289062 -1.300781 17.3125 -0.8125 C 16.332031 -0.332031 15.238281 0.0078125 14.03125 0.21875 C 12.832031 0.425781 11.65625 0.53125 10.5 0.53125 C 8.570312 0.53125 6.648438 0.25 4.734375 -0.3125 C 2.828125 -0.875 1.171875 -1.613281 -0.234375 -2.53125 L 1.15625 -5.21875 C 2.71875 -4.226562 4.257812 -3.46875 5.78125 -2.9375 C 7.300781 -2.40625 8.875 -2.140625 10.5 -2.140625 C 15.1875 -2.140625 17.53125 -3.351562 17.53125 -5.78125 C 17.53125 -6.375 17.335938 -6.851562 16.953125 -7.21875 C 16.566406 -7.59375 16.046875 -7.898438 15.390625 -8.140625 C 14.742188 -8.378906 14 -8.566406 13.15625 -8.703125 C 12.3125 -8.835938 11.425781 -8.96875 10.5 -9.09375 C 9.3125 -9.257812 8.132812 -9.453125 6.96875 -9.671875 C 5.800781 -9.898438 4.734375 -10.242188 3.765625 -10.703125 C 2.804688 -11.160156 2.03125 -11.769531 1.4375 -12.53125 C 0.851562 -13.289062 0.5625 -14.289062 0.5625 -15.53125 C 0.5625 -16.59375 0.832031 -17.507812 1.375 -18.28125 C 1.914062 -19.0625 2.632812 -19.707031 3.53125 -20.21875 C 4.4375 -20.738281 5.5 -21.117188 6.71875 -21.359375 C 7.9375 -21.597656 9.195312 -21.71875 10.5 -21.71875 C 12.363281 -21.71875 14.03125 -21.5 15.5 -21.0625 C 16.976562 -20.632812 18.3125 -20.019531 19.5 -19.21875 L 18.234375 -16.78125 C 17.023438 -17.632812 15.796875 -18.226562 14.546875 -18.5625 C 13.304688 -18.90625 11.957031 -19.078125 10.5 -19.078125 C 9.84375 -19.078125 9.113281 -19.019531 8.3125 -18.90625 C 7.519531 -18.800781 6.78125 -18.609375 6.09375 -18.328125 C 5.414062 -18.046875 4.84375 -17.679688 4.375 -17.234375 C 3.914062 -16.785156 3.6875 -16.21875 3.6875 -15.53125 C 3.6875 -14.9375 3.878906 -14.460938 4.265625 -14.109375 C 4.648438 -13.753906 5.171875 -13.457031 5.828125 -13.21875 C 6.484375 -12.976562 7.234375 -12.789062 8.078125 -12.65625 C 8.921875 -12.519531 9.800781 -12.394531 10.71875 -12.28125 C 11.875 -12.113281 13.039062 -11.914062 14.21875 -11.6875 C 15.394531 -11.457031 16.460938 -11.117188 17.421875 -10.671875 C 18.390625 -10.234375 19.171875 -9.632812 19.765625 -8.875 C 20.359375 -8.125 20.65625 -7.125 20.65625 -5.875 Z M 20.65625 -5.875 "/></g></g></g><g fill="#0e2349" fill-opacity="1"><g transform="translate(867.969663, 38.283349)"><g/></g></g><g fill="#0e2349" fill-opacity="1"><g transform="translate(894.265614, 38.283349)"><g><path d="M 20.109375 0 L 16.96875 0 L 16.96875 -1.953125 C 16.070312 -1.148438 15.085938 -0.535156 14.015625 -0.109375 C 12.941406 0.316406 11.84375 0.53125 10.71875 0.53125 C 9.039062 0.53125 7.53125 0.257812 6.1875 -0.28125 C 4.851562 -0.832031 3.726562 -1.597656 2.8125 -2.578125 C 1.894531 -3.554688 1.1875 -4.726562 0.6875 -6.09375 C 0.195312 -7.46875 -0.046875 -8.96875 -0.046875 -10.59375 C -0.046875 -12.195312 0.195312 -13.6875 0.6875 -15.0625 C 1.1875 -16.4375 1.894531 -17.613281 2.8125 -18.59375 C 3.726562 -19.570312 4.851562 -20.335938 6.1875 -20.890625 C 7.53125 -21.441406 9.039062 -21.71875 10.71875 -21.71875 C 11.84375 -21.71875 12.941406 -21.515625 14.015625 -21.109375 C 15.085938 -20.710938 16.070312 -20.113281 16.96875 -19.3125 L 16.96875 -27.0625 L 12.734375 -27.0625 L 12.734375 -29.71875 L 20.109375 -29.71875 Z M 16.96875 -16.28125 C 16.070312 -17.269531 15.09375 -17.984375 14.03125 -18.421875 C 12.976562 -18.859375 11.863281 -19.078125 10.6875 -19.078125 C 9.4375 -19.078125 8.335938 -18.859375 7.390625 -18.421875 C 6.441406 -17.984375 5.644531 -17.382812 5 -16.625 C 4.363281 -15.863281 3.882812 -14.96875 3.5625 -13.9375 C 3.238281 -12.914062 3.078125 -11.800781 3.078125 -10.59375 C 3.078125 -9.375 3.238281 -8.25 3.5625 -7.21875 C 3.882812 -6.195312 4.363281 -5.304688 5 -4.546875 C 5.644531 -3.796875 6.441406 -3.195312 7.390625 -2.75 C 8.335938 -2.3125 9.4375 -2.09375 10.6875 -2.09375 C 13.082031 -2.09375 15.175781 -3.039062 16.96875 -4.9375 Z M 16.96875 -16.28125 "/></g></g></g><g fill="#0e2349" fill-opacity="1"><g transform="translate(920.561565, 38.283349)"><g><path d="M 3.125 -9.515625 C 3.351562 -7.273438 4.171875 -5.484375 5.578125 -4.140625 C 6.992188 -2.804688 8.832031 -2.140625 11.09375 -2.140625 C 12.6875 -2.140625 14.101562 -2.460938 15.34375 -3.109375 C 16.59375 -3.765625 17.53125 -4.582031 18.15625 -5.5625 L 20.34375 -4.046875 C 19.28125 -2.566406 18.007812 -1.429688 16.53125 -0.640625 C 15.0625 0.140625 13.25 0.53125 11.09375 0.53125 C 9.445312 0.53125 7.941406 0.257812 6.578125 -0.28125 C 5.210938 -0.832031 4.03125 -1.597656 3.03125 -2.578125 C 2.039062 -3.554688 1.269531 -4.722656 0.71875 -6.078125 C 0.175781 -7.429688 -0.09375 -8.9375 -0.09375 -10.59375 C -0.09375 -12.195312 0.148438 -13.675781 0.640625 -15.03125 C 1.140625 -16.394531 1.851562 -17.570312 2.78125 -18.5625 C 3.71875 -19.5625 4.851562 -20.335938 6.1875 -20.890625 C 7.53125 -21.441406 9.03125 -21.71875 10.6875 -21.71875 C 12.488281 -21.71875 14.0625 -21.414062 15.40625 -20.8125 C 16.757812 -20.207031 17.890625 -19.367188 18.796875 -18.296875 C 19.703125 -17.222656 20.367188 -15.941406 20.796875 -14.453125 C 21.234375 -12.972656 21.453125 -11.328125 21.453125 -9.515625 Z M 18.15625 -12.1875 C 17.800781 -14.507812 16.957031 -16.238281 15.625 -17.375 C 14.289062 -18.507812 12.644531 -19.078125 10.6875 -19.078125 C 9.675781 -19.078125 8.742188 -18.914062 7.890625 -18.59375 C 7.046875 -18.269531 6.296875 -17.800781 5.640625 -17.1875 C 4.992188 -16.582031 4.445312 -15.847656 4 -14.984375 C 3.5625 -14.128906 3.285156 -13.195312 3.171875 -12.1875 Z M 18.15625 -12.1875 "/></g></g></g><g fill="#0e2349" fill-opacity="1"><g transform="translate(946.857515, 38.283349)"><g><path d="M 20.65625 -5.875 C 20.65625 -4.632812 20.34375 -3.601562 19.71875 -2.78125 C 19.09375 -1.957031 18.289062 -1.300781 17.3125 -0.8125 C 16.332031 -0.332031 15.238281 0.0078125 14.03125 0.21875 C 12.832031 0.425781 11.65625 0.53125 10.5 0.53125 C 8.570312 0.53125 6.648438 0.25 4.734375 -0.3125 C 2.828125 -0.875 1.171875 -1.613281 -0.234375 -2.53125 L 1.15625 -5.21875 C 2.71875 -4.226562 4.257812 -3.46875 5.78125 -2.9375 C 7.300781 -2.40625 8.875 -2.140625 10.5 -2.140625 C 15.1875 -2.140625 17.53125 -3.351562 17.53125 -5.78125 C 17.53125 -6.375 17.335938 -6.851562 16.953125 -7.21875 C 16.566406 -7.59375 16.046875 -7.898438 15.390625 -8.140625 C 14.742188 -8.378906 14 -8.566406 13.15625 -8.703125 C 12.3125 -8.835938 11.425781 -8.96875 10.5 -9.09375 C 9.3125 -9.257812 8.132812 -9.453125 6.96875 -9.671875 C 5.800781 -9.898438 4.734375 -10.242188 3.765625 -10.703125 C 2.804688 -11.160156 2.03125 -11.769531 1.4375 -12.53125 C 0.851562 -13.289062 0.5625 -14.289062 0.5625 -15.53125 C 0.5625 -16.59375 0.832031 -17.507812 1.375 -18.28125 C 1.914062 -19.0625 2.632812 -19.707031 3.53125 -20.21875 C 4.4375 -20.738281 5.5 -21.117188 6.71875 -21.359375 C 7.9375 -21.597656 9.195312 -21.71875 10.5 -21.71875 C 12.363281 -21.71875 14.03125 -21.5 15.5 -21.0625 C 16.976562 -20.632812 18.3125 -20.019531 19.5 -19.21875 L 18.234375 -16.78125 C 17.023438 -17.632812 15.796875 -18.226562 14.546875 -18.5625 C 13.304688 -18.90625 11.957031 -19.078125 10.5 -19.078125 C 9.84375 -19.078125 9.113281 -19.019531 8.3125 -18.90625 C 7.519531 -18.800781 6.78125 -18.609375 6.09375 -18.328125 C 5.414062 -18.046875 4.84375 -17.679688 4.375 -17.234375 C 3.914062 -16.785156 3.6875 -16.21875 3.6875 -15.53125 C 3.6875 -14.9375 3.878906 -14.460938 4.265625 -14.109375 C 4.648438 -13.753906 5.171875 -13.457031 5.828125 -13.21875 C 6.484375 -12.976562 7.234375 -12.789062 8.078125 -12.65625 C 8.921875 -12.519531 9.800781 -12.394531 10.71875 -12.28125 C 11.875 -12.113281 13.039062 -11.914062 14.21875 -11.6875 C 15.394531 -11.457031 16.460938 -11.117188 17.421875 -10.671875 C 18.390625 -10.234375 19.171875 -9.632812 19.765625 -8.875 C 20.359375 -8.125 20.65625 -7.125 20.65625 -5.875 Z M 20.65625 -5.875 "/></g></g></g><g fill="#0e2349" fill-opacity="1"><g transform="translate(973.153466, 38.283349)"><g/></g></g><g fill="#0e2349" fill-opacity="1"><g transform="translate(999.449417, 38.283349)"><g><path d="M 21.171875 -21.21875 C 21.171875 -18.351562 20.273438 -16.222656 18.484375 -14.828125 C 16.703125 -13.429688 14.191406 -12.734375 10.953125 -12.734375 L 4.234375 -12.734375 L 4.234375 0 L 1.109375 0 L 1.109375 -29.71875 L 10.90625 -29.71875 C 14.175781 -29.71875 16.703125 -29.007812 18.484375 -27.59375 C 20.273438 -26.175781 21.171875 -24.050781 21.171875 -21.21875 Z M 18.0625 -21.21875 C 18.0625 -23.269531 17.414062 -24.753906 16.125 -25.671875 C 14.832031 -26.597656 13.109375 -27.0625 10.953125 -27.0625 L 4.234375 -27.0625 L 4.234375 -15.390625 L 10.953125 -15.390625 C 13.109375 -15.390625 14.832031 -15.847656 16.125 -16.765625 C 17.414062 -17.691406 18.0625 -19.175781 18.0625 -21.21875 Z M 18.0625 -21.21875 "/></g></g></g><g fill="#0e2349" fill-opacity="1"><g transform="translate(1025.745367, 38.283349)"><g><path d="M 20.109375 0 L 16.96875 0 L 16.96875 -24.75 L 11.703125 -9.421875 L 9.46875 -9.421875 L 4.234375 -24.75 L 4.234375 0 L 1.109375 0 L 1.109375 -29.71875 L 5.171875 -29.71875 L 10.59375 -14.1875 L 16.0625 -29.71875 L 20.109375 -29.71875 Z M 20.109375 0 "/></g></g></g><g fill="#0e2349" fill-opacity="1"><g transform="translate(1052.041318, 38.283349)"><g><path d="M 20.109375 0 L 1.109375 0 L 1.109375 -29.71875 L 20.109375 -29.71875 L 20.109375 -27.0625 L 4.234375 -27.0625 L 4.234375 -16.421875 L 15.9375 -16.421875 L 15.9375 -13.75 L 4.234375 -13.75 L 4.234375 -2.671875 L 20.109375 -2.671875 Z M 20.109375 0 "/></g></g></g></g></g></g><g clip-path="url(#c409759aa3)"><g transform="matrix(1, 0, 0, 1, 285, 0)"><g clip-path="url(#a4987b4855)"><g fill="#0e2349" fill-opacity="1"><g transform="translate(0.782846, 39.243536)"><g><path d="M 18.078125 0 L 3.609375 0 L 3.609375 -4.296875 L 8.359375 -4.296875 L 8.359375 -25.84375 L 3.609375 -25.84375 L 3.609375 -30.15625 L 18.078125 -30.15625 L 18.078125 -25.84375 L 13.15625 -25.84375 L 13.15625 -4.296875 L 18.078125 -4.296875 Z M 18.078125 0 "/></g></g></g><g fill="#0e2349" fill-opacity="1"><g transform="translate(29.598026, 39.243536)"><g><path d="M 17.9375 0 L 15.765625 -7.1875 L 5.78125 -7.1875 L 3.65625 0 L -1.359375 0 L 8.046875 -30.15625 L 13.546875 -30.15625 L 22.953125 0 Z M 7.046875 -11.421875 L 14.484375 -11.421875 L 10.796875 -23.84375 Z M 7.046875 -11.421875 "/></g></g></g></g></g></g></g></g></svg>